<svg width="226" height="167" viewBox="0 0 226 167" fill="none" xmlns="http://www.w3.org/2000/svg">
<path d="M189.333 21.3228H35.8751C27.8382 21.3228 21.323 27.8379 21.323 35.8749V131.125C21.323 139.162 27.8382 145.677 35.8751 145.677H189.333C197.37 145.677 203.885 139.162 203.885 131.125V35.8749C203.885 27.8379 197.37 21.3228 189.333 21.3228Z" fill="white" stroke="#D9D9D9" stroke-width="2.64583"/>
<path fill-rule="evenodd" clip-rule="evenodd" d="M64.1653 67.2701C66.6526 67.4799 69.1399 66.0112 70.6945 64.1491C72.2231 62.2345 73.2336 59.6643 72.9745 57.0415C70.7722 57.1465 68.0517 58.5103 66.4972 60.4248C65.0722 62.0772 63.8544 64.7523 64.1653 67.2701ZM93.7538 101.051V60.1628H108.911C116.735 60.1628 122.202 65.618 122.202 73.5911C122.202 81.5641 116.632 87.0718 108.704 87.0718H100.024V101.051H93.7538ZM72.9483 67.7683C70.7571 67.6407 68.7576 68.4354 67.1426 69.0774C66.1034 69.4905 65.2233 69.8403 64.5537 69.8403C63.8023 69.8403 62.8859 69.4718 61.857 69.058C60.5087 68.5158 58.9673 67.896 57.3509 67.9257C53.6459 67.9782 50.1999 70.1026 48.3085 73.4859C44.4221 80.2524 47.2981 90.2712 51.0549 95.7789C52.8945 98.5065 55.0968 101.497 57.9986 101.392C59.2753 101.343 60.1936 100.948 61.144 100.54C62.2382 100.07 63.3748 99.5818 65.1496 99.5818C66.8629 99.5818 67.9498 100.058 68.9932 100.514C69.9853 100.948 70.9381 101.365 72.3524 101.339C75.3579 101.287 77.2493 98.6114 79.0889 95.8838C81.0741 92.9563 81.9464 90.0992 82.0788 89.6657L82.0883 89.6348L82.0944 89.6155C82.0912 89.6123 82.0668 89.601 82.0238 89.5811C81.3602 89.2736 76.2875 86.9228 76.2388 80.6196C76.19 75.329 80.262 72.6485 80.903 72.2265C80.9421 72.2008 80.9684 72.1835 80.9803 72.1745C78.3893 68.2929 74.3475 67.8733 72.9483 67.7683ZM133.655 101.365C137.593 101.365 141.246 99.3457 142.904 96.1459H143.034V101.051H148.837V80.6982C148.837 74.7971 144.174 70.9942 136.997 70.9942C130.338 70.9942 125.415 74.8496 125.234 80.1474H130.882C131.349 77.6296 133.655 75.9773 136.815 75.9773C140.65 75.9773 142.801 77.787 142.801 81.1178V83.3734L134.976 83.8455C127.695 84.2913 123.757 87.3074 123.757 92.5528C123.757 97.8507 127.825 101.365 133.655 101.365ZM135.338 96.5136C131.996 96.5136 129.871 94.8875 129.871 92.3959C129.871 89.8257 131.918 88.3308 135.831 88.0947L142.8 87.6489V89.9568C142.8 93.786 139.587 96.5136 135.338 96.5136ZM168.088 102.65C165.575 109.81 162.699 112.171 156.584 112.171C156.118 112.171 154.563 112.118 154.2 112.014V107.109C154.589 107.162 155.548 107.214 156.04 107.214C158.812 107.214 160.367 106.034 161.325 102.965L161.895 101.156L151.273 71.3876H157.828L165.212 95.5427H165.341L172.726 71.3876H179.099L168.088 102.65ZM100.023 65.5126H107.252C112.693 65.5126 115.802 68.45 115.802 73.6168C115.802 78.7835 112.693 81.7472 107.226 81.7472H100.023V65.5126Z" fill="black"/>
</svg>
