<svg width="228" height="229" viewBox="0 0 228 229" fill="none" xmlns="http://www.w3.org/2000/svg">
<path d="M114.044 228.178C176.942 228.178 227.931 177.188 227.931 114.29C227.931 51.3916 176.942 0.402344 114.044 0.402344C51.1455 0.402344 0.15625 51.3916 0.15625 114.29C0.15625 177.188 51.1455 228.178 114.044 228.178Z" fill="url(#paint0_linear_226_2420)"/>
<path d="M126.658 186.838V123.37H147.83L151.844 97.1328H126.658V80.0711C126.658 72.9024 130.195 65.877 141.474 65.877H152.944V43.5105C152.944 43.5105 142.525 41.7422 132.632 41.7422C111.891 41.7422 98.3178 54.3114 98.3178 77.0603V97.085H75.2344V123.323H98.3178V186.79H126.706L126.658 186.838Z" fill="white"/>
<defs>
<linearGradient id="paint0_linear_226_2420" x1="33.5148" y1="33.7609" x2="194.573" y2="194.819" gradientUnits="userSpaceOnUse">
<stop stop-color="#1677F1"/>
<stop offset="0.18" stop-color="#176EE9"/>
<stop offset="0.46" stop-color="#1D55D3"/>
<stop offset="0.82" stop-color="#252EB0"/>
<stop offset="1" stop-color="#2B189C"/>
</linearGradient>
</defs>
</svg>
