<svg width="226" height="167" viewBox="0 0 226 167" fill="none" xmlns="http://www.w3.org/2000/svg">
<path d="M189.333 21.3228H35.8751C27.8382 21.3228 21.323 27.8379 21.323 35.8749V131.125C21.323 139.162 27.8382 145.677 35.8751 145.677H189.333C197.37 145.677 203.885 139.162 203.885 131.125V35.8749C203.885 27.8379 197.37 21.3228 189.333 21.3228Z" fill="white" stroke="#D9D9D9" stroke-width="2.64583"/>
<path fill-rule="evenodd" clip-rule="evenodd" d="M107.472 103.387V87.4005H115.722C119.103 87.4005 121.957 86.2677 124.283 84.0334L124.842 83.467C129.091 78.8412 128.812 71.6349 124.283 67.3552C122.019 65.0895 118.917 63.8623 115.722 63.9252H102.478V103.387H107.472ZM107.472 82.5545V68.7714H115.848C117.648 68.7714 119.354 69.4637 120.626 70.7224C123.325 73.3657 123.387 77.7713 120.781 80.509C119.509 81.8622 117.71 82.6174 115.848 82.5545H107.472ZM148.136 78.4949C145.996 76.5124 143.08 75.5055 139.389 75.5055C134.643 75.5055 131.076 77.2677 128.719 80.7607L133.123 83.5613C134.736 81.1697 136.938 79.9739 139.73 79.9739C141.498 79.9739 143.204 80.6348 144.538 81.8306C145.84 82.9634 146.585 84.5998 146.585 86.3305V87.4949C144.662 86.4249 142.242 85.8585 139.265 85.8585C135.791 85.8585 132.999 86.6767 130.921 88.3445C128.843 90.0123 127.788 92.2151 127.788 95.0158C127.726 97.5647 128.812 99.9878 130.735 101.624C132.689 103.387 135.17 104.268 138.086 104.268C141.529 104.268 144.259 102.726 146.337 99.6416H146.554V103.387H151.331V86.7396C151.331 83.2466 150.276 80.4774 148.136 78.4949ZM134.582 98.4145C133.558 97.6593 132.938 96.432 132.938 95.1103C132.938 93.6313 133.62 92.4041 134.954 91.4285C136.319 90.453 138.026 89.9495 140.042 89.9495C142.834 89.9181 145.006 90.5474 146.557 91.8062C146.557 93.946 145.719 95.8026 144.075 97.376C142.586 98.8865 140.569 99.7362 138.46 99.7362C137.064 99.7676 135.699 99.2956 134.582 98.4145ZM162.063 115.25L178.75 76.3865H173.322L165.599 95.771H165.506L157.596 76.3865H152.168L163.117 101.656L156.914 115.25H162.063Z" fill="#3C4043"/>
<path d="M90.2314 83.9386C90.2314 82.3966 90.1073 80.8547 89.8592 79.3442H68.7983V88.0609H80.8641C80.3678 90.8616 78.7549 93.379 76.3976 94.9524V100.617H83.5936C87.812 96.6832 90.2314 90.8616 90.2314 83.9386Z" fill="#4285F4"/>
<path d="M68.7992 106.093C74.8166 106.093 79.9034 104.079 83.5945 100.617L76.3984 94.9525C74.3823 96.3371 71.8079 97.1239 68.7992 97.1239C62.9679 97.1239 58.0361 93.1274 56.2681 87.7778H48.855V93.6309C52.6391 101.278 60.3624 106.093 68.7992 106.093Z" fill="#34A853"/>
<path d="M56.2691 87.7779C55.3384 84.9772 55.3384 81.9248 56.2691 79.0927V73.271H48.8547C45.6594 79.6591 45.6594 87.2115 48.8547 93.5995L56.2691 87.7779Z" fill="#FBBC04"/>
<path d="M68.7992 69.7472C71.994 69.6842 75.0647 70.9115 77.36 73.1457L83.7496 66.6633C79.6863 62.8242 74.3513 60.7158 68.7992 60.7787C60.3624 60.7787 52.6391 65.6248 48.855 73.2716L56.2681 79.1247C58.0361 73.7436 62.9679 69.7472 68.7992 69.7472Z" fill="#EA4335"/>
</svg>
