<svg width="229" height="229" viewBox="0 0 229 229" fill="none" xmlns="http://www.w3.org/2000/svg">
<path d="M114.157 228.178C177.056 228.178 228.045 177.188 228.045 114.29C228.045 51.3916 177.056 0.402344 114.157 0.402344C51.2587 0.402344 0.269531 51.3916 0.269531 114.29C0.269531 177.188 51.2587 228.178 114.157 228.178Z" fill="url(#paint0_linear_226_2409)"/>
<path d="M145.555 76.1992C141.731 76.1992 138.625 79.3057 138.625 83.129C138.625 86.9523 141.731 90.0588 145.555 90.0588C149.378 90.0588 152.485 86.9523 152.485 83.129C152.485 79.3057 149.378 76.1992 145.555 76.1992Z" fill="white"/>
<path d="M114.634 85.0859C98.5285 85.0859 85.4336 98.1809 85.4336 114.287C85.4336 130.392 98.5285 143.487 114.634 143.487C130.74 143.487 143.835 130.392 143.835 114.287C143.835 98.1809 130.74 85.0859 114.634 85.0859ZM114.634 132.973C104.311 132.973 95.9478 124.562 95.9478 114.287C95.9478 104.011 104.359 95.6001 114.634 95.6001C124.91 95.6001 133.321 104.011 133.321 114.287C133.321 124.562 124.91 132.973 114.634 132.973Z" fill="white"/>
<path d="M137.813 173.555H90.4993C70.8569 173.555 54.8945 157.592 54.8945 137.95V90.6361C54.8945 70.9937 70.8569 55.0312 90.4993 55.0312H137.813C157.456 55.0312 173.418 70.9937 173.418 90.6361V137.95C173.418 157.592 157.456 173.555 137.813 173.555ZM90.4993 66.1667C77.0221 66.1667 66.03 77.1588 66.03 90.6361V137.95C66.03 151.427 77.0221 162.419 90.4993 162.419H137.813C151.29 162.419 162.282 151.427 162.282 137.95V90.6361C162.282 77.1588 151.29 66.1667 137.813 66.1667H90.4993Z" fill="white"/>
<defs>
<linearGradient id="paint0_linear_226_2409" x1="33.6281" y1="33.7609" x2="194.686" y2="194.819" gradientUnits="userSpaceOnUse">
<stop stop-color="#FFE185"/>
<stop offset="0.21" stop-color="#FFBB36"/>
<stop offset="0.38" stop-color="#FF5176"/>
<stop offset="0.52" stop-color="#F63395"/>
<stop offset="0.74" stop-color="#A436D2"/>
<stop offset="1" stop-color="#5F4EED"/>
</linearGradient>
</defs>
</svg>
