<svg width="226" height="167" viewBox="0 0 226 167" fill="none" xmlns="http://www.w3.org/2000/svg">
<path d="M189.333 21.3228H35.8751C27.8382 21.3228 21.323 27.8379 21.323 35.8749V131.125C21.323 139.162 27.8382 145.677 35.8751 145.677H189.333C197.37 145.677 203.885 139.162 203.885 131.125V35.8749C203.885 27.8379 197.37 21.3228 189.333 21.3228Z" fill="white" stroke="#D9D9D9" stroke-width="2.64583"/>
<path fill-rule="evenodd" clip-rule="evenodd" d="M113.927 110.789C107.622 116.23 99.4426 119.515 90.5051 119.515C70.5626 119.515 54.396 103.161 54.396 82.9862C54.396 62.8122 70.5626 46.458 90.5051 46.458C99.4427 46.458 107.622 49.7428 113.927 55.1841C120.232 49.7428 128.412 46.458 137.349 46.458C157.292 46.458 173.458 62.8123 173.458 82.9863C173.458 103.161 157.292 119.515 137.349 119.515C128.412 119.515 120.232 116.23 113.927 110.789Z" fill="#ED0006"/>
<path fill-rule="evenodd" clip-rule="evenodd" d="M113.927 110.789C121.691 104.089 126.614 94.1189 126.614 82.9862C126.614 71.8536 121.691 61.8841 113.927 55.1841C120.232 49.7428 128.412 46.458 137.349 46.458C157.292 46.458 173.458 62.8122 173.458 82.9862C173.458 103.161 157.292 119.515 137.349 119.515C128.412 119.515 120.232 116.23 113.927 110.789Z" fill="#F9A000"/>
<path fill-rule="evenodd" clip-rule="evenodd" d="M113.927 110.789C121.691 104.089 126.614 94.1192 126.614 82.9866C126.614 71.854 121.691 61.8845 113.927 55.1846C106.163 61.8845 101.24 71.854 101.24 82.9866C101.24 94.1192 106.163 104.089 113.927 110.789Z" fill="#FF5E00"/>
</svg>
