<svg width="226" height="167" viewBox="0 0 226 167" fill="none" xmlns="http://www.w3.org/2000/svg">
<path d="M189.333 21.3228H35.8751C27.8382 21.3228 21.323 27.8379 21.323 35.8749V131.125C21.323 139.162 27.8382 145.677 35.8751 145.677H189.333C197.37 145.677 203.885 139.162 203.885 131.125V35.8749C203.885 27.8379 197.37 21.3228 189.333 21.3228Z" fill="white" stroke="#D9D9D9" stroke-width="2.64583"/>
<path d="M105.275 96.1165C103.23 96.1166 101.386 94.8784 100.603 92.9789L83.1591 50.6315C82.0919 48.0404 83.3153 45.0699 85.8917 43.9964L104.162 36.3868C105.399 35.8712 106.789 35.8711 108.027 36.3865C109.264 36.9018 110.247 37.8905 110.759 39.1348L128.202 81.4839C129.268 84.0743 128.045 87.0429 125.47 88.1165L107.2 95.7295C106.59 95.9845 105.935 96.116 105.275 96.1165ZM106.095 38.7321C105.788 38.7326 105.485 38.794 105.203 38.9126L86.9317 46.5221C86.3606 46.76 85.9069 47.2164 85.6704 47.7908C85.4339 48.3652 85.434 49.0105 85.6707 49.5848L103.114 91.9348C103.608 93.1297 104.97 93.6973 106.16 93.2037L124.43 85.5889C125.001 85.351 125.455 84.8947 125.691 84.3203C125.928 83.7459 125.928 83.1006 125.691 82.5263L108.247 40.1807C107.886 39.3051 107.037 38.7337 106.095 38.7321Z" fill="#5A78FF"/>
<path opacity="0.7" d="M111.911 41.9272L109.399 42.9735L116.306 59.7414L118.817 58.6951L111.911 41.9272Z" fill="url(#paint0_linear_1606_395)" style="mix-blend-mode:multiply"/>
<path opacity="0.7" d="M124.53 79.7138L127.042 78.6675L119.224 59.687L116.712 60.7333L124.53 79.7138Z" fill="url(#paint1_linear_1606_395)" style="mix-blend-mode:multiply"/>
<path d="M121.358 67.1328C116.133 69.3117 111.77 72.3151 108.914 75.9355L101.549 58.0476C104.908 54.1225 109.184 51.0978 113.993 49.2449C119.218 47.066 124.497 46.0114 128.982 46.6259L136.349 64.5129C131.213 64.1239 126.062 65.0242 121.358 67.1328Z" fill="#5A78FF"/>
<g style="mix-blend-mode:multiply" opacity="0.4">
<path opacity="0.9" d="M121.358 67.1328C116.133 69.3117 111.77 72.3151 108.914 75.9355L101.549 58.0476C104.908 54.1225 109.184 51.0978 113.993 49.2449C119.218 47.066 124.497 46.0114 128.982 46.6259L136.349 64.5129C131.213 64.1239 126.062 65.0242 121.358 67.1328Z" fill="url(#paint2_linear_1606_395)"/>
<path opacity="0.7" d="M121.358 67.1328C116.133 69.3117 111.77 72.3151 108.914 75.9355L101.549 58.0476C104.908 54.1225 109.184 51.0978 113.993 49.2449C119.218 47.066 124.497 46.0114 128.982 46.6259L136.349 64.5129C131.213 64.1239 126.062 65.0242 121.358 67.1328Z" fill="url(#paint3_linear_1606_395)"/>
</g>
<path d="M123.758 72.5862C118.102 72.5862 112.925 73.6852 108.912 75.9286V57.842C113.509 55.509 118.611 54.3605 123.758 54.4996C129.414 54.4996 134.693 55.5541 138.603 57.8463V75.9329C134.007 73.5981 128.906 72.448 123.758 72.5862Z" fill="#5A78FF"/>
<path d="M55.0385 125.672L59.6145 111.126C59.6625 110.924 59.8338 110.777 60.0392 110.76H62.3358C62.5417 110.789 62.715 110.929 62.7865 111.126L66.3485 120.303C66.4178 120.486 66.5998 120.504 66.6605 120.303L70.1965 111.126C70.268 110.929 70.4413 110.789 70.6472 110.76H72.9438C73.1492 110.777 73.3205 110.924 73.3685 111.126L77.8492 125.672C77.9018 125.784 77.8914 125.916 77.8219 126.018C77.7523 126.12 77.634 126.178 77.5112 126.169H74.8072C74.6136 126.178 74.4418 126.045 74.3998 125.855L71.5052 116.407C71.4618 116.224 71.2538 116.224 71.1932 116.407L67.7265 125.785C67.6675 126.011 67.4646 126.169 67.2325 126.169H65.6638C65.4337 126.173 65.2332 126.012 65.1872 125.785L61.6512 116.407C61.5818 116.224 61.3998 116.224 61.3565 116.407L58.3838 125.855C58.3377 126.05 58.158 126.183 57.9592 126.169H55.3592C55.2374 126.177 55.1209 126.118 55.0545 126.015C54.9881 125.912 54.9819 125.781 55.0385 125.672ZM78.7505 120.486C78.7012 118.008 80.1476 115.746 82.4102 114.764C84.6729 113.781 87.3019 114.272 89.0622 116.007C90.8225 117.742 91.3642 120.375 90.4327 122.67C89.5013 124.965 87.2818 126.465 84.8172 126.465C83.2132 126.52 81.6568 125.912 80.5106 124.782C79.3643 123.653 78.7282 122.1 78.7505 120.486ZM87.7638 120.486C87.6694 118.855 86.294 117.601 84.6707 117.665C83.0475 117.729 81.774 119.088 81.8068 120.721C81.8396 122.354 83.1667 123.661 84.7912 123.659C85.6042 123.636 86.3748 123.289 86.9326 122.693C87.4904 122.098 87.7895 121.304 87.7638 120.486ZM96.2398 125.245C96.0145 125.062 95.8152 125.132 95.8152 125.445V125.768C95.8154 125.997 95.6356 126.186 95.4078 126.195H93.2932C93.0624 126.186 92.8774 126 92.8685 125.768V111.195C92.8774 110.963 93.0624 110.777 93.2932 110.768H95.5205C95.7482 110.778 95.928 110.966 95.9278 111.195V115.309C95.9278 115.606 96.1272 115.693 96.4478 115.466C97.3008 114.823 98.3374 114.475 99.4032 114.472C102.488 114.472 104.854 117.087 104.854 120.451C104.927 121.989 104.379 123.491 103.335 124.617C102.291 125.743 100.838 126.397 99.3078 126.43C98.1751 126.428 97.083 126.006 96.2398 125.245ZM101.786 120.486C101.872 119.364 101.325 118.288 100.37 117.7C99.4147 117.113 98.213 117.113 97.258 117.7C96.3031 118.288 95.7559 119.364 95.8412 120.486C95.8108 121.3 96.1067 122.091 96.6625 122.683C97.2183 123.275 97.9873 123.617 98.7965 123.633C100.483 123.59 101.817 122.182 101.778 120.486H101.786ZM106.718 111.823C106.718 110.86 107.494 110.08 108.451 110.08C109.408 110.08 110.184 110.86 110.184 111.823C110.184 112.786 109.408 113.566 108.451 113.566C107.494 113.566 106.718 112.786 106.718 111.823ZM106.874 125.768V115.222C106.874 114.993 107.053 114.804 107.281 114.795H109.508C109.739 114.804 109.924 114.99 109.933 115.222V125.768C109.924 126 109.739 126.186 109.508 126.195H107.281C107.053 126.186 106.874 125.997 106.874 125.768ZM112.446 122.282V111.195C112.446 110.966 112.626 110.778 112.854 110.768H115.081C115.312 110.777 115.497 110.963 115.506 111.195V122.386C115.506 123.11 115.818 123.589 116.606 123.589C116.841 123.589 117.031 123.78 117.031 124.016V125.872C117.022 126.102 116.834 126.282 116.606 126.282C113.642 126.282 112.446 125.306 112.446 122.282ZM117.863 120.539C117.781 118.381 118.878 116.351 120.723 115.248C122.569 114.144 124.866 114.144 126.712 115.248C128.557 116.351 129.654 118.381 129.572 120.539C129.572 120.948 129.459 121.288 129.052 121.288H121.304C121.104 121.288 121.035 121.401 121.052 121.584C121.244 122.939 122.442 123.916 123.8 123.824C124.623 123.837 125.408 123.479 125.94 122.848C126.106 122.615 126.375 122.478 126.66 122.482H128.705C129.069 122.482 129.225 122.735 129.087 123.092C127.871 125.583 125.11 126.904 122.422 126.28C119.733 125.656 117.827 123.252 117.82 120.478L117.863 120.539ZM126.088 119.493C126.244 119.493 126.313 119.423 126.287 119.24C126.051 117.989 124.953 117.091 123.687 117.113C122.449 117.112 121.373 117.967 121.087 119.179C121.044 119.336 121.087 119.493 121.269 119.493H126.088ZM131.444 125.768V111.195C131.444 110.966 131.623 110.778 131.851 110.768H138.949C142.19 110.768 144.4 112.668 144.4 115.867C144.4 119.066 141.896 121.035 138.793 121.035H135.032C134.917 121.023 134.804 121.065 134.724 121.149C134.645 121.232 134.608 121.348 134.624 121.462V125.768C134.616 126 134.431 126.186 134.2 126.195H131.86C131.629 126.19 131.444 126 131.444 125.768ZM138.793 118.429C139.446 118.42 140.068 118.149 140.521 117.676C140.973 117.203 141.219 116.567 141.202 115.911C141.23 115.26 140.985 114.628 140.527 114.167C140.069 113.707 139.44 113.46 138.793 113.488H135.006C134.737 113.488 134.624 113.627 134.624 113.897V118.02C134.624 118.29 134.737 118.429 135.006 118.429H138.793ZM145.458 120.486C145.399 118.945 145.958 117.444 147.009 116.32C148.059 115.197 149.514 114.544 151.048 114.507C152.154 114.513 153.221 114.926 154.046 115.667C154.246 115.85 154.471 115.823 154.471 115.553V115.213C154.471 114.987 154.654 114.804 154.878 114.804H156.993C157.224 114.813 157.409 114.999 157.418 115.231V122.735C157.418 123.301 157.617 123.554 158.007 123.606C158.209 123.611 158.375 123.769 158.388 123.972V125.942C158.388 126.154 158.218 126.326 158.007 126.326C156.516 126.326 155.641 125.899 155.147 125.036C155.008 124.809 154.852 124.766 154.627 124.992C153.675 125.978 152.362 126.526 150.996 126.509C149.462 126.464 148.011 125.8 146.969 124.667C145.927 123.534 145.383 122.027 145.458 120.486ZM154.471 120.486C154.556 119.367 154.011 118.294 153.059 117.708C152.106 117.122 150.908 117.122 149.956 117.708C149.004 118.294 148.458 119.367 148.543 120.486C148.458 121.606 149.004 122.679 149.956 123.264C150.908 123.85 152.106 123.85 153.059 123.264C154.011 122.679 154.556 121.606 154.471 120.486ZM159.472 130.126V128.287C159.481 128.058 159.669 127.877 159.896 127.877C161.347 127.989 162.686 127.089 163.138 125.698C163.214 125.407 163.183 125.097 163.051 124.827L158.908 115.396C158.837 115.268 158.839 115.111 158.914 114.985C158.99 114.859 159.126 114.783 159.272 114.786H161.5C161.725 114.786 161.864 114.969 161.95 115.196L164.55 121.227C164.732 121.706 165.027 121.68 165.226 121.227L167.705 115.178C167.792 114.952 167.904 114.812 168.13 114.812H170.305C170.439 114.805 170.566 114.867 170.644 114.977C170.721 115.087 170.737 115.228 170.686 115.353L166.431 125.524C164.88 129.219 163.233 130.596 159.94 130.596C159.814 130.604 159.69 130.557 159.6 130.467C159.511 130.377 159.464 130.253 159.472 130.126Z" fill="#5A78FF"/>
<defs>
<linearGradient id="paint0_linear_1606_395" x1="756.736" y1="1266.36" x2="642.703" y2="-56.6007" gradientUnits="userSpaceOnUse">
<stop stop-color="#504678"/>
<stop offset="0.302" stop-color="#504678" stop-opacity="0.616"/>
<stop offset="0.608" stop-color="#504678" stop-opacity="0.283"/>
<stop offset="0.852" stop-color="#504678" stop-opacity="0.076"/>
<stop offset="1" stop-color="#504678" stop-opacity="0"/>
</linearGradient>
<linearGradient id="paint1_linear_1606_395" x1="-589.563" y1="-1312.89" x2="-518.042" y2="169.554" gradientUnits="userSpaceOnUse">
<stop stop-color="#504678"/>
<stop offset="0.302" stop-color="#504678" stop-opacity="0.616"/>
<stop offset="0.608" stop-color="#504678" stop-opacity="0.283"/>
<stop offset="0.852" stop-color="#504678" stop-opacity="0.076"/>
<stop offset="1" stop-color="#504678" stop-opacity="0"/>
</linearGradient>
<linearGradient id="paint2_linear_1606_395" x1="578.38" y1="2002.38" x2="1963.37" y2="1063.51" gradientUnits="userSpaceOnUse">
<stop stop-color="#504678"/>
<stop offset="0.179" stop-color="#504678" stop-opacity="0.872"/>
<stop offset="0.526" stop-color="#504678" stop-opacity="0.536"/>
<stop offset="1" stop-color="#504678" stop-opacity="0"/>
</linearGradient>
<linearGradient id="paint3_linear_1606_395" x1="1762.35" y1="1077.5" x2="1700.45" y2="585.207" gradientUnits="userSpaceOnUse">
<stop stop-color="#504678"/>
<stop offset="0.643" stop-color="#504678" stop-opacity="0.332"/>
<stop offset="1" stop-color="#504678" stop-opacity="0"/>
</linearGradient>
</defs>
</svg>
