<svg width="229" height="229" viewBox="0 0 229 229" fill="none" xmlns="http://www.w3.org/2000/svg">
<path d="M114.27 228.178C177.169 228.178 228.158 177.188 228.158 114.29C228.158 51.3916 177.169 0.402344 114.27 0.402344C51.372 0.402344 0.382812 51.3916 0.382812 114.29C0.382812 177.188 51.372 228.178 114.27 228.178Z" fill="url(#paint0_linear_226_2415)"/>
<path fill-rule="evenodd" clip-rule="evenodd" d="M138.117 96.5119C146.385 102.438 156.517 105.879 167.462 105.879V84.803C165.407 84.803 163.304 84.6118 161.296 84.1817V100.765C150.352 100.765 140.22 97.2766 131.952 91.3982V134.363C131.952 155.869 114.508 173.265 93.0021 173.265C84.9731 173.265 77.5176 170.828 71.3047 166.67C78.3779 173.887 88.2229 178.379 99.1194 178.379C120.626 178.379 138.07 160.935 138.07 139.477V96.5119H138.117ZM145.716 75.2446C141.511 70.6088 138.691 64.6827 138.117 58.0874V55.3633H132.287C133.768 63.7268 138.787 70.8956 145.716 75.2446ZM84.9731 150.182C82.6313 147.076 81.3409 143.3 81.3409 139.381C81.3409 129.536 89.3222 121.603 99.1672 121.603C100.983 121.603 102.799 121.889 104.568 122.415V100.909C102.513 100.622 100.458 100.526 98.4026 100.574V117.349C96.6343 116.776 94.8182 116.537 93.0021 116.537C83.157 116.537 75.1758 124.518 75.1758 134.315C75.1758 141.245 79.1425 147.267 84.9731 150.23V150.182Z" fill="#FF1753"/>
<path fill-rule="evenodd" clip-rule="evenodd" d="M131.954 91.3982C140.222 97.3244 150.354 100.765 161.298 100.765V84.1817C155.181 82.8913 149.78 79.6893 145.718 75.2446C138.74 70.8956 133.722 63.7268 132.289 55.3633H116.947V139.477C116.947 149.274 108.966 157.207 99.1212 157.207C93.3384 157.207 88.1769 154.435 84.9271 150.182C79.0965 147.267 75.1298 141.245 75.1298 134.267C75.1298 124.422 83.111 116.489 92.9561 116.489C94.8199 116.489 96.636 116.776 98.3565 117.301V100.526C77.2326 100.957 60.2188 118.209 60.2188 139.429C60.2188 150.039 64.4722 159.645 71.3064 166.622C77.5193 170.78 84.9748 173.218 93.0038 173.218C114.51 173.218 131.954 155.774 131.954 134.315V91.3504V91.3982Z" fill="white"/>
<path fill-rule="evenodd" clip-rule="evenodd" d="M161.343 84.183V79.6906C155.847 79.6906 150.447 78.1613 145.763 75.246C149.921 79.7862 155.369 82.8926 161.343 84.183ZM132.286 55.3646C132.142 54.5522 132.047 53.7397 131.951 52.9272V50.2031H110.78V134.316C110.78 144.114 102.798 152.047 92.9532 152.047C90.0857 152.047 87.3616 151.378 84.9242 150.136C88.174 154.389 93.3355 157.161 99.1183 157.161C108.916 157.161 116.897 149.228 116.945 139.43V55.3646H132.286ZM98.3537 100.576V95.7964C96.5854 95.5574 94.8171 95.4141 93.001 95.4141C71.4947 95.4141 54.0508 112.858 54.0508 134.316C54.0508 147.794 60.885 159.646 71.3036 166.671C64.4216 159.646 60.2159 150.04 60.2159 139.478C60.2159 118.258 77.182 101.006 98.3537 100.576Z" fill="#00C9D0"/>
<defs>
<linearGradient id="paint0_linear_226_2415" x1="33.7414" y1="33.7609" x2="194.799" y2="194.819" gradientUnits="userSpaceOnUse">
<stop stop-color="#23004A"/>
<stop offset="0.96" stop-color="#010003"/>
<stop offset="1"/>
</linearGradient>
</defs>
</svg>
