<svg width="226" height="167" viewBox="0 0 226 167" fill="none" xmlns="http://www.w3.org/2000/svg">
<path d="M189.333 21.3228H35.8751C27.8382 21.3228 21.323 27.8379 21.323 35.8749V131.125C21.323 139.162 27.8382 145.677 35.8751 145.677H189.333C197.37 145.677 203.885 139.162 203.885 131.125V35.8749C203.885 27.8379 197.37 21.3228 189.333 21.3228Z" fill="white" stroke="#D9D9D9" stroke-width="2.64583"/>
<path fill-rule="evenodd" clip-rule="evenodd" d="M76.2253 106.033H65.0053L56.5916 73.9347C56.1923 72.4582 55.3444 71.1528 54.0971 70.5376C50.9844 68.9915 47.5543 67.7611 43.8125 67.1405V65.9047H61.8871C64.3816 65.9047 66.2526 67.7611 66.5644 69.917L70.9299 93.0708L82.1444 65.9047H93.0526L76.2253 106.033ZM99.2889 106.033H88.6925L97.418 65.9047H108.014L99.2889 106.033ZM121.724 77.0214C122.036 74.8601 123.906 73.6243 126.089 73.6243C129.519 73.314 133.256 73.9346 136.374 75.4753L138.245 66.8354C135.126 65.5996 131.696 64.979 128.584 64.979C118.299 64.979 110.815 70.5375 110.815 78.2518C110.815 84.1205 116.116 87.202 119.858 89.0583C123.906 90.9093 125.466 92.1451 125.154 93.9962C125.154 96.7727 122.036 98.0085 118.923 98.0085C115.181 98.0085 111.439 97.083 108.015 95.5369L106.144 104.182C109.885 105.723 113.934 106.344 117.675 106.344C129.207 106.649 136.374 101.095 136.374 92.7604C136.374 82.2641 121.724 81.6489 121.724 77.0214ZM173.458 106.033L165.045 65.9047H156.007C154.136 65.9047 152.265 67.1405 151.642 68.9915L136.062 106.033H146.97L149.147 100.17H162.55L163.797 106.033H173.458ZM157.567 76.7109L160.679 91.8347H151.954L157.567 76.7109Z" fill="#172B85"/>
</svg>
